<?xml version="1.0" encoding="UTF-8"?>
<svg width="314px" height="59px" viewBox="0 0 314 59" version="1.1" xmlns="http://www.w3.org/2000/svg" xmlns:xlink="http://www.w3.org/1999/xlink">
    <!-- Generator: Sketch 49.3 (51167) - http://www.bohemiancoding.com/sketch -->
    <title>logo-letters</title>
    <desc>Created with Sketch.</desc>
    <defs></defs>
    <g id="Merge.Rocks" stroke="none" stroke-width="1" fill="none" fill-rule="evenodd">
        <g id="01_Hello" transform="translate(-414.000000, -308.000000)" fill="#50E3C2" fill-rule="nonzero">
            <g id="Logotype-/-Text-Green" transform="translate(414.000000, 308.000000)">
                <path d="M14.2492518,0.788769745 L19.8836259,22.3616314 L26.2937474,0.788769745 L40.5429992,0.788769745 L40.5429992,58.2112303 L30.0091685,58.2112303 L30.0091685,41.2132349 L30.499114,14.3556151 L22.7008136,39.2807489 L17.0256096,39.2807489 L10.0438853,15.4204547 L10.5338307,41.2132349 L10.5338307,58.2112303 L0,58.2112303 L0,0.788769745 L14.2492518,0.788769745 Z M104.842526,33.0494651 L80.4269044,33.0494651 L80.4269044,49.2586895 L108.966235,49.2586895 L108.966235,58.2112303 L68.9131829,58.2112303 L68.9131829,0.788769745 L108.843749,0.788769745 L108.843749,9.82018721 L80.4269044,9.82018721 L80.4269044,24.2941174 L104.842526,24.2941174 L104.842526,33.0494651 Z M156.525955,36.7566849 L147.829421,36.7566849 L147.829421,58.2112303 L136.356528,58.2112303 L136.356528,0.788769745 L156.280983,0.788769745 C159.574522,0.788769745 162.554995,1.1634323 165.22249,1.91276745 C167.889984,2.6621026 170.16957,3.75979634 172.061313,5.20588257 C173.953058,6.65196755 175.40927,8.45297519 176.429996,10.608957 C177.45072,12.76494 177.961076,15.2626861 177.961076,18.1022733 C177.961076,20.1530857 177.7093,22.0001033 177.205743,23.6433826 C176.702185,25.2866619 175.980883,26.7590182 175.041816,28.0604941 C174.10275,29.3619714 172.973164,30.4991035 171.653027,31.4719256 C170.332888,32.4447465 168.856261,33.2860928 167.223102,33.9959896 L180.002516,57.698529 L180.002516,58.2112303 L167.713047,58.2112303 L156.525955,36.7566849 Z M147.829421,27.7647058 L156.321812,27.7647058 C159.560912,27.7647058 162.058249,26.9693707 163.813896,25.3786768 C165.569543,23.7879828 166.447354,21.6123139 166.447354,18.8516047 C166.447354,15.9857249 165.589958,13.7574719 163.87514,12.1667779 C162.160322,10.5760839 159.628961,9.78074885 156.280983,9.78074885 L147.829421,9.78074885 L147.829421,27.7647058 Z M245.322764,51.5066849 C244.587841,52.3743364 243.580741,53.2551198 242.301433,54.1490639 C241.022124,55.0430081 239.504669,55.8514889 237.749021,56.5745326 C235.993374,57.2975751 234.026807,57.8825739 231.849259,58.3295453 C229.671713,58.7765168 227.330885,59 224.826705,59 C221.451508,59 218.402988,58.421574 215.681055,57.2647058 C212.959121,56.1078376 210.631902,54.4382907 208.699329,52.2560163 C206.766756,50.0737419 205.27652,47.3985224 204.228576,44.2302802 C203.180631,41.0620379 202.656667,37.466598 202.656667,33.44385 L202.656667,25.6350267 C202.656667,21.61228 203.207851,18.0168388 204.310234,14.8485965 C205.412617,11.6803543 206.936877,8.99198915 208.883059,6.78342206 C210.829242,4.57485498 213.115631,2.89216243 215.742298,1.73529419 C218.368964,0.578425957 221.220146,0 224.295931,0 C227.643909,0 230.56314,0.407526809 233.053709,1.22259298 C235.544278,2.0376604 237.646941,3.21423087 239.361759,4.75233953 C241.076577,6.29044945 242.417109,8.16375845 243.383396,10.3723268 C244.349682,12.5808939 244.982522,15.0654943 245.281935,17.8262035 L234.094843,17.8262035 C233.713772,14.881447 232.795134,12.6663397 231.338899,11.1808151 C229.882665,9.69529174 227.630299,8.95253949 224.581733,8.95253949 C223.111889,8.95253949 221.750943,9.31405634 220.498853,10.0370988 C219.246764,10.7601413 218.158007,11.818398 217.23255,13.2118989 C216.307091,14.6053985 215.57218,16.3341023 215.027793,18.3980616 C214.483407,20.4620197 214.211217,22.8480262 214.211217,25.55615 L214.211217,33.44385 C214.238437,38.8075136 215.163881,42.9156497 216.987576,45.7683826 C218.811272,48.6211154 221.601212,50.0606062 225.357481,50.0868989 C226.255718,50.0868989 227.140334,50.0211679 228.011352,49.8897058 C228.882371,49.7582438 229.698939,49.5741989 230.461081,49.3375662 C231.223222,49.1009348 231.896891,48.8314404 232.482106,48.5290779 C233.067321,48.2267142 233.509629,47.9046357 233.809042,47.5628337 L233.849871,37.1510698 L224.01013,37.1510698 L224.01013,28.8689837 L245.281935,28.8689837 L245.322764,51.5066849 Z M309.132346,33.0494651 L284.716724,33.0494651 L284.716724,49.2586895 L313.256055,49.2586895 L313.256055,58.2112303 L273.203002,58.2112303 L273.203002,0.788769745 L313.133569,0.788769745 L313.133569,9.82018721 L284.716724,9.82018721 L284.716724,24.2941174 L309.132346,24.2941174 L309.132346,33.0494651 Z" id="MERGE"></path>
            </g>
        </g>
    </g>
</svg>